<svg xmlns="http://www.w3.org/2000/svg" viewBox="0 0 700 350" class="responsive-svg">
    <defs>
        <style>.cls-1{fill:#fff;}</style>
    </defs>
    <title>Arc Light Main Logo</title>
    <!-- ARCLight.svg content -->
    <!-- Original viewBox: 0 0 372.51 141.98 -->
    <!-- Center horizontally in 700px width: (700 - 372.51) / 2 = 163.745 -->
    <g transform="translate(164, 0)">
        <g id="Camada_2">
            <g id="Camada_1-2">
                <path class="cls-1" d="M0,62.24V62C0,50.41,9.87,44,24.18,44A65.47,65.47,0,0,1,42.5,46.41V44c0-11.28-6.82-16.91-18.2-16.91A36.77,36.77,0,0,0,6.94,31.55L5,26.89a42.57,42.57,0,0,1,19.61-4.77c7.6,0,13.45,2.06,17.47,6.07,3.79,3.79,5.63,9,5.63,15.61V78.28H42.5V69.06A25.41,25.41,0,0,1,21.36,79.58C11.06,79.58,0,73.84,0,62.24Zm42.61-4.67V51.28a73.49,73.49,0,0,0-18.76-2.49c-11.7,0-18.21,5.09-18.21,12.9v.22c0,8,7.58,12.68,16,12.68C33,74.59,42.61,67.66,42.61,57.57Z"/>
                <path class="cls-1" d="M66.82,23h5.32V38.71c4.44-10,13.44-16.92,24.49-16.59V28H96.1c-12.69,0-24,9.76-24,27.65V78.28H66.82Z"/>
                <path class="cls-1" d="M103.71,50.85v-.22c0-15.5,12.25-28.95,28.18-28.95,10.42,0,16.92,4.67,22.13,10.19l-3.8,3.91c-4.77-4.88-10.19-9.11-18.43-9.11-12.57,0-22.34,10.41-22.34,23.74v.22c0,13.45,10.19,24,22.78,24,7.8,0,13.88-4,18.54-9.21l3.68,3.25c-5.64,6.4-12.47,11-22.56,11C116,79.58,103.71,66.35,103.71,50.85Z"/>
                <path class="cls-1" d="M193.64,0h2.28V78.28h-2.28Z"/>
                <path class="cls-1" d="M214.14,2.17h3.14V8.35h-3.14Zm.43,21h2.28V78.28h-2.28Z"/>
                <path class="cls-1" d="M234.21,88.47l1.29-2.06a32.9,32.9,0,0,0,19.09,6.18c12.47,0,20.16-6.72,20.16-20.6V60c-2.92,7.26-10.29,14.85-20.37,14.85-12.7,0-22.56-11.71-22.56-26.13v-.32c0-14.42,9.86-26.24,22.56-26.24,10.08,0,17.45,7.59,20.37,14.85V23.2H277V72.1c0,7.27-1.94,12.9-6,16.92-3.79,3.79-9.54,5.74-16.48,5.74A36.1,36.1,0,0,1,234.21,88.47ZM275,48.79v-.43c0-12.69-8.89-24.07-20.49-24.07s-20.16,11-20.16,24v.32c0,13.12,8.56,24.07,20.16,24.07S275,61.48,275,48.79Z"/>
                <path class="cls-1" d="M294.64,0h2.26V36.32c1.74-6.18,7.82-14.2,18.66-14.2,12.25,0,19.3,8.67,19.3,22.66v33.5h-2.28V44.89c0-12.47-6-20.6-17.24-20.6-10.08,0-18.44,9.21-18.44,21v33h-2.26Z"/>
                <path class="cls-1" d="M353.86,65.92V25.26h-7.48V23.2h7.48V5.31h2.38V23.2h16.27v2.06H356.24V65.7c0,7.49,3.26,11.17,9.87,11.17a15.1,15.1,0,0,0,6.4-1.41v2.28a15.1,15.1,0,0,1-6.4,1.3C358.31,79,353.86,74.59,353.86,65.92Z"/>
                <path class="cls-1" d="M2.33,122.23H0v-1.41H2.33v-1.58a5.64,5.64,0,0,1,1.42-4.19,4.51,4.51,0,0,1,3.37-1.26,6.81,6.81,0,0,1,2.39.38v1.45a7.15,7.15,0,0,0-2.39-.41q-3.25,0-3.25,4.06v1.55H9.48v1.41H3.87v14.65H2.33Z"/>
                <path class="cls-1" d="M12.79,120.82h1.54v4.56a7.6,7.6,0,0,1,7.12-4.82v1.7h-.16c-3.69,0-7,2.84-7,8v6.58H12.79Z"/>
                <path class="cls-1" d="M23.49,128.91v-.06a8.3,8.3,0,0,1,8.29-8.41A8.21,8.21,0,0,1,40,128.78v.07a8.31,8.31,0,0,1-8.29,8.41A8.22,8.22,0,0,1,23.49,128.91Zm14.84,0v-.06a6.71,6.71,0,0,0-6.62-7,6.62,6.62,0,0,0-6.55,6.89v.07a6.72,6.72,0,0,0,6.62,7A6.63,6.63,0,0,0,38.33,128.91Z"/>
                <path class="cls-1" d="M44.75,120.82h1.54v2.86a5.88,5.88,0,0,1,5.36-3.24,5.75,5.75,0,0,1,5.41,3.46,6.43,6.43,0,0,1,5.8-3.46c3.81,0,6.17,2.67,6.17,6.71v9.73H67.49v-9.55c0-3.49-1.76-5.48-4.76-5.48-2.71,0-5.07,2.05-5.07,5.67v9.36H56.12v-9.64c0-3.37-1.8-5.39-4.7-5.39s-5.13,2.52-5.13,5.77v9.26H44.75Z"/>
                <path class="cls-1" d="M82.85,128.78v-.06c0-5.29,3.87-8.47,7.78-8.47a7.26,7.26,0,0,1,6.23,3.46v-9.83h2.43v23H96.86V133.6a7.3,7.3,0,0,1-6.23,3.63C86.72,137.23,82.85,134.14,82.85,128.78Zm14.11,0v-.06a6.05,6.05,0,0,0-5.89-6.27c-3.15,0-5.74,2.33-5.74,6.27v.06c0,3.88,2.62,6.3,5.74,6.3A6.08,6.08,0,0,0,97,128.75Z"/>
                <path class="cls-1" d="M103.47,132.15v-.06c0-3.4,2.84-5.26,7-5.26a17.65,17.65,0,0,1,5,.69V127c0-2.93-1.79-4.44-4.85-4.44a11,11,0,0,0-4.94,1.19l-.73-2a13,13,0,0,1,5.92-1.36,7.12,7.12,0,0,1,5.26,1.8,6.44,6.44,0,0,1,1.67,4.75v10h-2.33v-2.46a7.09,7.09,0,0,1-5.89,2.81C106.53,137.23,103.47,135.53,103.47,132.15Zm12-1.25v-1.58a16.88,16.88,0,0,0-4.79-.69c-3.05,0-4.75,1.32-4.75,3.37v.06c0,2.05,1.92,3.24,4.09,3.24C113.05,135.3,115.47,133.48,115.47,130.9Z"/>
                <path class="cls-1" d="M122.93,120.59h2.43v4.26a7,7,0,0,1,6.64-4.54v2.62h-.19c-3.56,0-6.45,2.55-6.45,7.46v6.49h-2.43Z"/>
                <path class="cls-1" d="M135.68,113.88h2.43v15.88l8.79-9.17h3l-6.83,7,7,9.29h-2.9l-5.82-7.59-3.31,3.34v4.25h-2.43Z"/>
                <path class="cls-1" d="M153.6,120.59H156v2.84a6.18,6.18,0,0,1,5.57-3.18c3.91,0,6.24,2.64,6.24,6.52v10.11h-2.43v-9.51c0-3-1.6-4.92-4.5-4.92a4.8,4.8,0,0,0-4.88,5.11v9.32H153.6Z"/>
                <path class="cls-1" d="M172,128.78v-.06c0-4.69,3.27-8.47,7.81-8.47,4.82,0,7.59,3.84,7.59,8.6a6.28,6.28,0,0,1,0,.78H174.45a5.68,5.68,0,0,0,5.73,5.52,6.74,6.74,0,0,0,5.13-2.3l1.52,1.35a8.28,8.28,0,0,1-6.71,3.06A8.12,8.12,0,0,1,172,128.78Zm12.95-.94c-.26-2.93-1.92-5.55-5.2-5.55-2.87,0-5,2.4-5.29,5.55Z"/>
                <path class="cls-1" d="M190.28,134.8l1.23-1.73a9.37,9.37,0,0,0,5.64,2.08c2,0,3.37-1,3.37-2.59v-.06c0-1.6-1.92-2.27-4.06-2.87-2.52-.75-5.39-1.57-5.39-4.59V125c0-2.8,2.33-4.66,5.55-4.66a11,11,0,0,1,5.85,1.8l-1.1,1.82a9.16,9.16,0,0,0-4.82-1.57c-1.92,0-3.15,1-3.15,2.36v.06c0,1.55,2,2.14,4.19,2.81,2.52.75,5.23,1.73,5.23,4.66v.06c0,3.09-2.55,4.89-5.79,4.89A11.22,11.22,0,0,1,190.28,134.8Z"/>
                <path class="cls-1" d="M205.65,134.8l1.23-1.73a9.32,9.32,0,0,0,5.64,2.08c2,0,3.37-1,3.37-2.59v-.06c0-1.6-1.92-2.27-4.07-2.87-2.52-.75-5.38-1.57-5.38-4.59V125c0-2.8,2.33-4.66,5.54-4.66a11,11,0,0,1,5.86,1.8l-1.1,1.82a9.16,9.16,0,0,0-4.82-1.57c-1.92,0-3.15,1-3.15,2.36v.06c0,1.55,2,2.14,4.19,2.81,2.52.75,5.23,1.73,5.23,4.66v.06c0,3.09-2.55,4.89-5.8,4.89A11.22,11.22,0,0,1,205.65,134.8Z"/>
                <path class="cls-1" d="M233.2,132.75V122.23h-2.33v-1.41h2.33v-5.14h1.55v5.14h5.63v1.41h-5.63V132.6c0,2.29,1.32,3.11,3.21,3.11a5.33,5.33,0,0,0,2.36-.56v1.45a6.11,6.11,0,0,1-2.61.56C235.19,137.16,233.2,135.81,233.2,132.75Z"/>
                <path class="cls-1" d="M243.37,128.91v-.06a8.3,8.3,0,0,1,8.29-8.41,8.21,8.21,0,0,1,8.22,8.34v.07a8.31,8.31,0,0,1-8.29,8.41A8.22,8.22,0,0,1,243.37,128.91Zm14.84,0v-.06a6.71,6.71,0,0,0-6.62-7,6.62,6.62,0,0,0-6.55,6.89v.07a6.72,6.72,0,0,0,6.62,7A6.63,6.63,0,0,0,258.21,128.91Z"/>
                <path class="cls-1" d="M272.91,128.78v-.06c0-5.29,3.87-8.47,7.78-8.47a7.29,7.29,0,0,1,6.24,3.46v-9.83h2.42v23h-2.42V133.6c-1.36,2-3.22,3.63-6.24,3.63C276.78,137.23,272.91,134.14,272.91,128.78Zm14.11,0v-.06a6.05,6.05,0,0,0-5.89-6.27c-3.15,0-5.73,2.33-5.73,6.27v.06c0,3.88,2.61,6.3,5.73,6.3A6.08,6.08,0,0,0,287,128.75Z"/>
                <path class="cls-1" d="M293.75,128.78v-.06c0-4.69,3.28-8.47,7.81-8.47,4.82,0,7.6,3.84,7.6,8.6a6.28,6.28,0,0,1,0,.78H296.21a5.69,5.69,0,0,0,5.73,5.52,6.78,6.78,0,0,0,5.14-2.3l1.51,1.35a8.27,8.27,0,0,1-6.71,3.06A8.12,8.12,0,0,1,293.75,128.78Zm12.95-.94c-.25-2.93-1.92-5.55-5.2-5.55-2.86,0-4.94,2.4-5.29,5.55Z"/>
                <path class="cls-1" d="M312.05,134.8l1.22-1.73a9.37,9.37,0,0,0,5.64,2.08c2,0,3.37-1,3.37-2.59v-.06c0-1.6-1.92-2.27-4.06-2.87-2.52-.75-5.39-1.57-5.39-4.59V125c0-2.8,2.34-4.66,5.55-4.66a11,11,0,0,1,5.86,1.8l-1.1,1.82a9.21,9.21,0,0,0-4.82-1.57c-1.93,0-3.15,1-3.15,2.36v.06c0,1.55,2,2.14,4.19,2.81,2.52.75,5.23,1.73,5.23,4.66v.06c0,3.09-2.56,4.89-5.8,4.89A11.19,11.19,0,0,1,312.05,134.8Z"/>
                <path class="cls-1" d="M329.15,114.36h2.77V117h-2.77Zm.15,6.23h2.43v16.29H329.3Z"/>
                <path class="cls-1" d="M337.17,139.72l1.11-1.9a10.36,10.36,0,0,0,6.27,2.08c3.62,0,5.92-2,5.92-5.79v-1.92a7.72,7.72,0,0,1-6.4,3.43,7.55,7.55,0,0,1-7.65-7.62v-.07a7.54,7.54,0,0,1,7.65-7.68,7.7,7.7,0,0,1,6.37,3.27v-2.93h2.42v13.46a7.74,7.74,0,0,1-2.08,5.76,8.42,8.42,0,0,1-6.2,2.17A12.74,12.74,0,0,1,337.17,139.72ZM350.53,128v-.06a5.7,5.7,0,0,0-6-5.51,5.37,5.37,0,0,0-5.64,5.48v.06a5.51,5.51,0,0,0,5.64,5.55A5.75,5.75,0,0,0,350.53,128Z"/>
                <path class="cls-1" d="M358.27,120.59h2.43v2.84a6.18,6.18,0,0,1,5.57-3.18c3.91,0,6.24,2.64,6.24,6.52v10.11h-2.43v-9.51c0-3-1.6-4.92-4.5-4.92a4.8,4.8,0,0,0-4.88,5.11v9.32h-2.43Z"/>
            </g>
        </g>
    </g>
    <!-- ComingSoon_Light.svg content -->
    <!-- Original viewBox: 0 0 420 51.24 -->
    <!-- 'l' in ARCLight (centered in 700px) is at x = 163.745 + 193.64 = 357.385 -->
    <!-- 'c' in ComingSoon is at x = 0 -->
    <!-- To align 'c' with 'l', translate by 357.385 -->
    <!-- Vertical position: After ARCLight (141.98) + gap (requested increase) -->
    <g transform="translate(358, 200)">
        <g id="Camada_2">
            <g id="Camada_1-2">
                <path class="cls-1" d="M0,27v-.24C0,17.64,5.82,11,13.08,11a12.17,12.17,0,0,1,9.3,4.32l-.9.9a11.07,11.07,0,0,0-8.46-4c-6.54,0-11.7,6.12-11.7,14.46V27c0,8.46,5.1,14.52,11.64,14.52,3.9,0,6.54-1.92,8.64-4.26l.9.84c-2.34,2.58-5.22,4.62-9.6,4.62C5.64,42.72,0,36.36,0,27Z"/>
                <path class="cls-1" d="M26.82,27.06v-.24C26.82,17.94,32.16,11,40,11c7.68,0,13.14,6.84,13.14,15.72V27c0,8.88-5.4,15.72-13.14,15.72S26.82,35.94,26.82,27.06Zm25-.06v-.24c0-8-5-14.52-11.88-14.52S28.14,18.78,28.14,26.76V27c0,8.1,5,14.52,11.88,14.52S51.84,35.1,51.84,27Z"/>
                <path class="cls-1" d="M61,11.64h1.26v6.84A9.65,9.65,0,0,1,71.4,11c5.34,0,8.34,3.36,9.36,7.92,1-3.84,4.56-7.92,9.54-7.92,5.76,0,9.78,4,9.78,11.94V42.12H98.82V23c0-7.14-3.48-10.8-8.58-10.8-4.74,0-9.06,4.56-9.06,11v18.9H79.92V23c0-7.14-3.48-10.8-8.58-10.8-4.68,0-9.06,4.56-9.06,11v18.9H61Z"/>
                <path class="cls-1" d="M109.32,0h1.74V3.42h-1.74Zm.24,11.64h1.26V42.12h-1.26Z"/>
                <path class="cls-1" d="M120.84,11.64h1.26V18.9A10.7,10.7,0,0,1,132.42,11c6.78,0,10.68,4.8,10.68,12.54V42.12h-1.26V23.64c0-6.9-3.3-11.4-9.54-11.4-5.58,0-10.2,5.1-10.2,11.64V42.12h-1.26Z"/>
                <path class="cls-1" d="M151.86,47.76l.72-1.14A18.17,18.17,0,0,0,163.14,50c6.9,0,11.16-3.72,11.16-11.4V32c-1.62,4-5.7,8.22-11.28,8.22-7,0-12.48-6.48-12.48-14.46v-.18C150.54,17.58,156,11,163,11c5.58,0,9.66,4.2,11.28,8.22V11.64h1.26V38.7c0,4-1.08,7.14-3.3,9.36s-5.28,3.18-9.12,3.18A20,20,0,0,1,151.86,47.76Zm22.56-22v-.24c0-7-4.92-13.32-11.34-13.32S151.92,18.3,151.92,25.5v.18c0,7.26,4.74,13.32,11.16,13.32S174.42,32.82,174.42,25.8Z"/>
                <path class="cls-1" d="M196.32,38.52l.84-1a14.51,14.51,0,0,0,9.72,3.84c4.79,0,8.33-2.88,8.33-6.54v-.12c0-4-3.29-5.46-8.63-7.74-6.06-2.34-9.06-4.26-9.06-8.28V18.6c0-4.08,3.66-7.44,9.3-7.44a14.75,14.75,0,0,1,9.11,3.3l-.77,1a13.25,13.25,0,0,0-8.41-3.12c-4.79,0-7.91,2.7-7.91,6.24v.06c0,3.48,3,5.16,8.33,7.26,6,2.4,9.37,4.26,9.37,8.82v.06c0,4.44-4.08,7.8-9.79,7.8A15.61,15.61,0,0,1,196.32,38.52Z"/>
                <path class="cls-1" d="M222.42,27.06v-.24c0-8.88,5.34-15.78,13.2-15.78,7.67,0,13.13,6.84,13.13,15.72V27c0,8.88-5.39,15.72-13.13,15.72S222.42,35.94,222.42,27.06Zm25-.06v-.24c0-8-5-14.52-11.87-14.52s-11.82,6.54-11.82,14.52V27c0,8.1,5,14.52,11.88,14.52S247.43,35.1,247.43,27Z"/>
                <path class="cls-1" d="M254.75,27.06v-.24c0-8.88,5.34-15.78,13.2-15.78,7.68,0,13.14,6.84,13.14,15.72V27c0,8.88-5.4,15.72-13.14,15.72S254.75,35.94,254.75,27.06Zm25-.06v-.24c0-8-5-14.52-11.88-14.52s-11.81,6.54-11.81,14.52V27c0,8.1,5,14.52,11.87,14.52S279.77,35.1,279.77,27Z"/>
                <path class="cls-1" d="M289,11.64h1.26V18.9A10.7,10.7,0,0,1,300.53,11c6.78,0,10.68,4.8,10.68,12.54V42.12H310V23.64c0-6.9-3.3-11.4-9.54-11.4-5.58,0-10.2,5.1-10.2,11.64V42.12H289Z"/>
            </g>
        </g>
    </g>
</svg>